<mxfile host="65bd71144e">
    <diagram id="kuO37Pg-ov-DAMyH3yDP" name="Page-1">
        <mxGraphModel dx="532" dy="399" grid="1" gridSize="10" guides="1" tooltips="1" connect="1" arrows="1" fold="1" page="1" pageScale="1" pageWidth="827" pageHeight="1169" math="0" shadow="0">
            <root>
                <mxCell id="0"/>
                <mxCell id="1" parent="0"/>
                <mxCell id="2" value="http://ics2o.mths.ca" style="swimlane;whiteSpace=wrap;html=1;" parent="1" vertex="1">
                    <mxGeometry x="4" y="60" width="820" height="480" as="geometry"/>
                </mxCell>
                <mxCell id="3" value="&lt;font style=&quot;font-size: 22px;&quot;&gt;revered number or words with JS&lt;/font&gt;" style="rounded=0;whiteSpace=wrap;html=1;" parent="2" vertex="1">
                    <mxGeometry y="20" width="765" height="50" as="geometry"/>
                </mxCell>
                <mxCell id="4" value="&lt;font style=&quot;font-size: 22px;&quot;&gt;Enter number or words&lt;/font&gt;" style="text;html=1;strokeColor=none;fillColor=none;align=center;verticalAlign=middle;whiteSpace=wrap;rounded=0;" parent="2" vertex="1">
                    <mxGeometry x="30" y="140" width="230" height="30" as="geometry"/>
                </mxCell>
                <mxCell id="5" value="&lt;span style=&quot;font-size: 16px;&quot;&gt;show&lt;/span&gt;" style="rounded=1;whiteSpace=wrap;html=1;" parent="2" vertex="1">
                    <mxGeometry x="50" y="280" width="120" height="40" as="geometry"/>
                </mxCell>
                <mxCell id="7" value="" style="rounded=1;whiteSpace=wrap;html=1;" parent="2" vertex="1">
                    <mxGeometry x="40" y="200" width="170" height="30" as="geometry"/>
                </mxCell>
                <mxCell id="8" value="enohP" style="text;html=1;strokeColor=none;fillColor=none;align=center;verticalAlign=middle;whiteSpace=wrap;rounded=0;" parent="2" vertex="1">
                    <mxGeometry x="60" y="360" width="120" height="30" as="geometry"/>
                </mxCell>
                <mxCell id="9" value="" style="shape=image;verticalLabelPosition=bottom;labelBackgroundColor=default;verticalAlign=top;aspect=fixed;imageAspect=0;image=data:image/jpeg,/9j/4AAQSkZJRgABAQAAAQABAAD/2wCEAAkGBxISERUREhMVFhUXGB0XFRYYGRkYFhcdHR4dFhYVGBobHSglHhomHxcXIjEhJSkrLi4uFx8zODMsNygtLisBCgoKDg0OGxAQGzUmICUtLS0vLSsrLy0tLS0tLS0tLS0tLS0tLS0tLS0tLS0tLS0tLS0tLS0tLS0tLS0tLS0tLf/AABEIAIwBaQMBIgACEQEDEQH/xAAbAAEAAwEBAQEAAAAAAAAAAAAAAwQFAgYBB//EADoQAAICAQMCBAUCBAUCBwAAAAECABEDBBIhBTETIkFRMmFxgZGhsRRCUtEjM2JywSThBhU1Q4LC8P/EABgBAQEBAQEAAAAAAAAAAAAAAAACAwEE/8QAMhEAAgIAAwUIAQQCAwEAAAAAAAECEQMhMRJBUWHwEyKBkaGxwdFxBBTh8UJScpKiMv/aAAwDAQACEQMRAD8A/cYiIAiQalmVSVAJHNE0PzRlXpGtbNj8QqFB7Ub7cG+B7SNtbWzv1Jckmo72aMT5Eso+xE+QD7Eg1OqVNu4/EwUfUyYTiaeQs+xEToERPggH2IiAIiIAiZWq6oUOUbL8NQ3f4r9O3E0NPk3IrVVgGpnDEjO0t38/RKkm6RLEjy3tO2r9L7Sj0bWNlx7noHcRx24Nes7tra2d9WdckmlxNKInDtQJ71KbpWzp3Ex9N1ct4P8Ah14pYd/h238ue02JMJqatdZJ+zRMZqWaEREsoREQBERAEREAREQBERAEREAREQBERAEREAREQCLP8DfQzzukS+nHvwGPBI/mPtPQ6jFvUruK36ir/UEShi6Oq4jhDvtP+37j4fW55cbDlNul/i1rvZlODck+T9TK1ejVNNizLYyDZTWb5oEd+0s63Tq2rxhrpkJPmPt9eBLubpCtiXEcj7Vqvhs12vy+lTP1zr/F4k8UqQhBa13X6A2Ks/SY4kNiStZOUd/5swnDZjmv9fOzrT6cYtQ+BL8Nk3FbPlPbj2uR6LGDoHu+N5HJ/qM2dHoFxljZLN8TMbJ+X0+krr0ZAGUO4VrtQRtF964nX+nnVJaqS10t5eBosOS055cLMvU4VbFpLUGyoNj0rt9J6TDhVFCqAo9hwJQy9IRsa4i7eQgq1qGFduy1+kvYMW1a3FvmeTPRhYbjKTa1r2orDg4u2ty9ER6/SLlQ42JAPejXzk2LGFUKOwFCQ67SDKhxsSAfVTR95Lhx7VCjsBXPeaJd5uuGZpXeuvEg6pjZsTqjbWIoG6/WZXSAi5QrYziyhTY7q4481jv2/WbGt0oyoUYkA1yOCKNgj8SLBoAreIWZ2qgWrgewAAEylhy7RSXX8++/QicW5JrrrkXp5vq+r25SP4vw+B5PD3V87qekkT4FJsqCfmBKxsNzVJ+/w0ViRclS+fhox+g6jczf9T43Hbbtr59puyPFiVewA+gqSSsKLjFJ/Py2/UYcXFU/n5bIMmmRt1j4htb5jn+5mb1YJvxIdzHmsS1TD3a+KHzmzKOq6eruuTcysvAK12PobBk4sLXdW9dcPMTjayM/oYK5s+OtqjaQgNhbFmpW6Z07Hk05Zh5gWIazYomiPaa+n6aqZGyBntviBIINCr7X+shxdGVVKeJk2EklbUA3yRYUGvvPOv08qSavKS14u16GKw5ZWrzfqZODVPlXTY8hO19+49t22wAT86m7pOmrjdnU0GAGwcKK9QPefdV03HkRUIoL8JXgrXajOtLpdvJd3PbzG/0AAmmFhOMu9nz8EtCoYbi889M+FEiaRBtofB8PyvvLERPSklobJUIiJ06IiIAiIgCIiAIiIAiIgCIiAIiIAiIgCIiAIiIBDqc4xoXbsoszN0uTUZl8QFcanlVI3GvQk3J+vYS+nyKverHzo3X6Tro+oV8KEHsKPyI7gzztuWK4t0qv85/BlJtzUd1eZH0/qW4umQBXx/Fz5a9GB9pb/ise3fvXb/VYr8zH6ePE1OfIOU27L9GPrItCAdAw443/AG8xmEf1M1HPhJ3xp0vNERxHp/y9DV1vVMeMIbB3kVzxR/m+km/jsXH+IvPbkc/SYur/AMrSf7l/aWOsYVOfT8DlmB4+Ut4003pql5pfY7WVN8l6mpg1mN72OrV3og1CarGQWDqQOCQRQ+RmTqcSrrMXhgAlW8QDttrix9Y6Io251of5h4+w9J1Y8r2Wl/l5qvTMpYj2tl8a9LL2s6pjx4/EsEHhaPfmuDLWDUK4tGDD5G55l/8A05P93/3nqlr0lYOLKcnelL1RzDxHJ+Cfnf0c5HCgkmgOST2EYsgYBlIIPYjsZzqQpRg9ba819q9bnOkVAgGOtleWu03t7Vf2bXnRYlZNbiZtodS3sCLn3WV4b7jtG02fYVyZi6TdifFiyKrLf+FkXgjjncPoZlPFcZpbusuXiRiTca66/P2eiiJ57r6Kci2uc+X/ANv4e/rx3lYuJ2cdquvJlTlsqz0MTzXQ0UZeF1ANH472/t3npZ3CxNuO118HMOe2rMzU6nIM2xQNuwsP9w7SXp2qLYFyZCASLJ7CWygu657TE67StgU8Yt/m9v8ASD8u8zm5YdybvdyzfwRNuFzvw8jUTUJkBGPICa7gg1M7o/VF8P8Axsq7txA3EAnmhNAaRBkOUDzldt36fSY/SMSHS5N4FW9k/UzPElOM08v/AJk99ZNV1uOSclJab/wb2XMqjczAD3J4nODUo4Oxg1d6NzzujyDwtMjIXyEscdkgAAmiftUudNDDV5Q229ik7RQ/eUsdyklWTy5ru3+LEcZunWteqsfx+egaHObZ2/luvz3m7I/CX2He/v7ySbYcZRWbs0jFrV2IiJoWIiIAiIgCIiAIiIAiIgCIiAIiIAiIgCIiAJQzdKwsSxQWe9WL+td5ficcVLVHGk9SPFiVQFUAAdgOBKZ6TgJY+GPN3719a9/nNCJxwi9UNlcCk3TcRQYytqOQCSa+huxMvq+AB8KKjlFLFtqsaBHuPW56GJniYMZqtNN3AmWGpKirpNHjSyi0T3JssfqTzOH6ZhLFygs9/Y/UdjLsTTYjpRWytKKS9NxBDi2+Q/ykkj34s8faTabTJjG1BQ//AHvJ4hQitEFFIizYgylWFgiiPeMGFUUIooDsJLE7SuxSuyPLjDAqwsEUR7ytg6diQ7lXkcAkk0PYWePtLsRspu6DSYiInToiIgCQ58CupVwGB9DJonGk8mCnpOn4sXKIAe19z9LPpI16RhH8nF3RJK377SamhEns45ZE7EdKKup0aZK3L8PKkWCPoRyJzj6fjV/EC03awSL+vPP3lyJ3Yjd0d2VwEREo6IiIAiIgCIiAIiIAiIgCIiAIiIAiIgCIiAIiIAiJ8nLB9iInQIiIAiIgCIiAIiIAiIgCIiAIny59gCIiAIiR5MgUWxAHuTUAkifBPsAROHcKLJAHueBCOCLBBHuORFg7iIgCIiAIiIAiRDKpO0EWO4vn8SWEwIifLgH2IiAIiIAiIgCIiAIiIBX1mJWxsGAIrseR8pidEyjDpPFCbjzuqgTRPJJ9pt6vIFRifb0BPy9JgaHJWhZCG3Uwra18sa9J48eWzNta7D90YYmU0+T+C63WSAjthcY2rz2vF9uAbqT6nqZXKMQxMxIJFFRf5P71M7qDXo8agMT5ONpvir4qS6zUKuqwsbrYfQ3+KuTLEmns7W+OeWjWfIjtJJa/68N7plvS9V3F0ONlyKL2EiyPcG6jF1XdgOcYzxdrYvg0Tf2kGmRsmobNtKoE2ixRYn1r2lPTOV02XAUfeN/8po2SQQfvOPGxFHN7pVlq08vNbilOS1eWefhkW9f1LJtwtjWvEYeovnnb29fea+FmItl2n2u/1nns5PgaZgrHw2XeADYoUeO89Dhyh1DC6+Yo/gzbBk3OVvh7L5O4bblm9y9iLX6k40LhC9fyr3PpJcL7lBoixdHuPlItfqfDxlwrPX8q9z6SXC+5QaIsXR7j5TZPvNXwNb71WcazUriRsjdlF/8AaV9PrWZlDYyoYbgbDD04NdjzO+pvWNrTeOAV9wTR/Tn7TO6XjK5qxFzh22QwNKfQLfMylOSxUt3XpzTInKSkkuszembq+s4MTbHem9trH9hNKY+u0moZicbYwvpuUE/mpWNKaj3Fb/F/KKm5Jd37+izoeqYcxIxtZHJ8rD9wJfmX0zTZkJOQoRXG0UfvxNSVhOTinLXy+WIOTXe18vsxNdoHZtQRfnxgL9RfH7fmWcmq8IY8VFnYUBddhySfaaUxevVeMrZyg+QLW6v5uDwRXvMpx7KLlHl77ueZE1spyXXW4m03U2bI+Nse3Z8R3XQqwRxzOD1ny+L4beFfx2O3bdt71K+j8N/Fx+dc2RfMXADHihVcUPlINDjxrjGLLhcuOCKYhvmD2mSxMTJbW5587003LXQjblx4/wALQ1cvURvGPGpdq3HkAAehJPvM/q2qXNpch20ycEGiVPHY/wDM5y6cY85yPjY43C1QJKECtpAjqKp/D5BjxMu6q8ptj713/MjFnOWHPa55e27hxEpSaknz9sq8TRXWMGTGqbvKCx3Vt+vEjbqpO/ZjLKh2sbAN+tD1lTTE4MgYbmxZRzwSVYCrPrXEi1K2Tkwq+PNuraAdr892sVRHNy5Y06527WV+G5+78DnaS2fjlW7+fwWOpZXOpxJs3LtLBSQATwLPHpcsjVKjeBhx2wFsoIULfuff6Svqcn/V4iQeEIYhTQJqhdT6inDqcjsCUyAEMATRHoahSam89ZNXwW7w/ItqTfNeCotYepBlchG3pwycWPvdEfORaHq/i7CuJ9rd29F/v27yDSYzvz6hgVVwAoINkAVdd5P/AOG2/wCnVSCCo8wIIr8ysOc5SSb3XpzpeazKjKTaV8d2tPI4ydaPhtlTEWxqSN24AmuCQPaTv1KlTyW+T4EBux3uzVCZFqPEXbkOn3WNlFT6t/qq/aWeoIGbDqFUviClSF7gHgEATOONNxu+Hhnm9NOBCxJZu+rza31RfxdTFuuQbGQbiCbFe4Ikf/m9BXbGy42IAYkXz2JX0BlbJpceVMgxIysVrewI+YXnmcaTwiio+B94oFaYix632l9piXV+PHP8cPwU5T0vjT6Xt5kuMqmsytwAMYJ9B3PJ/vLB6qVxeK+MrZAUXZa+3oK+8zdXpvG1GRfMtqAppgNwN0fQyf8AjfExBc2JiQ23IKPHfzrQ55A7e8jDnKKaWWtcH3uvM4pNOW7N+Zo4tQzlsbIUO2wbsG7HBHrKGh6e6nTE35Fbd8rHA/X9JJ0VHV3UFzhFbC/e/UC+am1PRCCxEpvX6fWZpGO2rfWa+hERPQbCIiAIiIAiIgCIiAJVy67Ep2tkVT7FgDIet6g48DuvcDj7kC/1nHSdEi4VsAlhbEiySe5Myc5OexHcrzM3N7WyvyaCsCLHMzc+hyHULmDLSjaAQex7+veVNAzYs+bAlFQoZATwvuPpzJ8HUsjaU5tqbhu45C8Ej/iYvGw5pOWqt/8AV0TtqSqXP/ybMTzvUdVlZNOysF3sL4Pfv7/D8pZ1mtzY3xJWNi5Ivlfn25r62Zp+4jbtPJpedfZ3tlm92XqbMTHw6/KuUYsyrbAlGUmjXNG/3nWg1+TImQlU3IxUCzt4APJ7/pOrHi/X019yliJuutLNaJ5vW67K+kXICFLMA1A/1VxzxN3TB685Un/SCBX3JnYYym2lwT8zkcRSdLhfnf0TxINSzBGKAFqO0HgE+k+aMuUU5AA1cgdhNNrOi7zosRIdRk2qzVdAmh3NTN6frsuXY48Mo3xBb3J7Wb5/AkPESls7zjmk6NiImb1DqfhMF8LI9i7UWPpKnOMFcjspKKtmlM3W6JmyLlxsAyjbRFgg+k50PVPEfb4TrxdsKH0mpJ7uIk18onuzRm48KjJvyOpybeB2Cr6kDv8AeXseVWAZSCD2I5BlPPoN2XxP9BX8ynlzHS4sOIbbPl3N8K+pJmam8O7VL5bona2bbWXHyNTVapMa7nND8/tJMeQMAw5BFiZGvyZDps/ibeAdrL2YVd0SZ90upyN4ePEVoIPEJBO3jgcMOflOrG7+y+Crjnf0O0qVf2bUTGzdUJyOiNjXZwWc9z7AWPzIx10HErUN7MUonygjuxP9P9539zDj1de514sVv4+mpuxMfTdUPi+E5xtakhkPHHcEWeZWy9VzeB/EKECk8KQS1XV3Y5+VTj/UQXXB17h40V6+mp6GcOoII9+JkarqGZGxLtRt/qLBJq6APb05sz7m6hlxqoyIpyO+1ApO36k/KHjwzTvLJ5enqHix37uR1p+nZUTwlyDZyAdvmAPp3qTnNh06KhNADgUSa96AuvnIm1r4siJl2kOaDLYo+xBJ/Mq4BkOsy0U4C91J8vPA57zPbjFpQ1vZz3Uroi1HKKz0/Fm5jcMAR2PIlddbjOQ4g3nAsij2+vb1mdi6llyF/DCeRq8M3vIHBPfj8RqMwTVlmNAYjz9xLf6hVFrRv0pv4KeJkmuP8G5EyP458eE5c23/AEqoIPyskn/tIh1VldA5xMHO2kNlD6XzyPxKeNFOny9dLOvFijciYb9XZi/htiUISPOeXI71yKHz5n0dZLrh8NQGy38XZdvxdu/6Tn7iH1zzrLxHax49aG3K/wDF4+POvJ2jkcn+n6/KZ2j1mZs74WKUgBJCnkH/AOXB/MY+j0EH9OUv9jdD9o7WUqcFln6NL7G22u6jZiIm5oIiIAiIgCIiAV9bphkxtjbswqZ2jbPiQYzi8TbwrKygEelhiKM2YmcsO5bSdPQhwTd7zK6ZoGVny5CPEyeg7KB2USlg02ZcD4PCv4trblo2SR63fM9FEzf6aLVJ1k155v1Odksq5+up5/UaXKcOCsZ3YmUlCVs0KNG6/WferZW8TTMUO628ti+3vdfrN+Z2t6b4rq5dlKcqBtoH35Bk4mA67r1cfSvhaaESwqi1Hkt24gGnyZM6ZXXYuMHaCQWJPFmuAJHpMObG2VfD3K7blbcAORVEd/T2m2J9l9gru88+Gd/0X2a1vqqPNDQZjoxi2EOpBoleabdwQf3m7pcjMtshQ+xIP7SxE7h4Kw3k9yXkI4ai7T3UQalmCMUFtXlB4BPoJ80jOUByAK1cgc1LETTZzsus7IdTu2NsotR232v0uY+LRMcyZVxeFV+JytP8qUn19TN6JE8JSab3ddUTKClqJm6/p75GBXM+MAVS9j85pRLlFSVMqUVJUzM0PTnxvubO7iq2nt9ZpxERioqkcjFR0Ez+ohiVHhDJjN718t+m0jcQPeaERKO0qOtWjzg0GVdPlVUbznyY9wOwfMk1+J1h0eTEceTFjPIC5cdqLrs/er/vPQxMF+mimmm8qrw+7zMuwj1+b63cjCXTZMWV2XF4iZDuq1DKfUcmqnWu0WTIEyBFV0awl8EHuCfebcTv7eOzs7vDLO/c68JZrc/7/OpmYc7DzPhGNQCWJKk/bbcyMeNheYYQ2K96ruIof1bPhv1956fIgYFTyCKImfi6Sqrs8Rzj/oJFV7XV195GLhSbVbrp5a+WngTPDbqufD+q45FXWM+VsGXHjZlFsTajgjtRYcyx1bRNk8PIg8+NtwB9fcX7zSRQAAOAO07mrwE7t6tPxVaeRXZpp3vr0MbUYMmfJjLIURDuNkEk+gG0niNNjyDVZMhxsFYBQbT0vkjddTZiOwVp27u/Gq9jvZK7535aHntVosmWj4WzKG/zQVAq+/Bs8ehE61ehbLqCXxE4ymzdacG73DzX/wAzfiR+2i9eN7s8q4c/zzOdit/L0PPfwObJhbBkBBU/4eQkENXw3zf6S7psmU0G04U+rblr5kVzNSJUcBJ3b4bs68AsJKqZg6fS5MDOoxDKjMWUgqCL7g7v+I6rbqmIIozE7lAPwgHk7h2NccTelHW6BcjK9lXX4WWr+Y54qRLAqGzHTwWXJ15WceFUWo9cfkpdMzeHk8F8Wx2G7cG37q72x5/M25TwaMK28ks1VubvXsK4EuTbCjKMafSLw4tKmIiJoWIiIAiIgCIiAIiIAiIgCIiAIiIAiIgCIiAIiIAiIgCIiAIiIAiIgCIiAIiIAiIgCIiAIiIAiIgCIiAIiIAiIgCIiAIiIB//2Q==;" parent="2" vertex="1">
                    <mxGeometry x="296" y="144.01" width="495" height="191.97" as="geometry"/>
                </mxCell>
            </root>
        </mxGraphModel>
    </diagram>
</mxfile>